<mxfile host="app.diagrams.net" modified="2023-09-07T14:51:57.117Z" agent="Mozilla/5.0 (Windows NT 10.0; Win64; x64) AppleWebKit/537.36 (KHTML, like Gecko) Chrome/116.0.0.0 Safari/537.36" version="21.2.0" etag="lpJYiO0SzYHKtibk7obk" type="github">
  <diagram name="Page-1" id="vBIhO4oVnz4x6pG9HWQe">
    <mxGraphModel>
      <root>
        <mxCell id="0" />
        <mxCell id="1" parent="0" />
      </root>
    </mxGraphModel>
  </diagram>
</mxfile>
